<svg xmlns="http://www.w3.org/2000/svg" version="1.1" xmlns:xlink="http://www.w3.org/1999/xlink" xmlns:svgjs="http://svgjs.dev/svgjs" width="1000" height="303" viewBox="0 0 1000 303"><g transform="matrix(1,0,0,1,0.16994382022460286,0.25990573621984936)"><svg viewBox="0 0 356 108" data-background-color="#fce44d" preserveAspectRatio="xMidYMid meet" height="303" width="1000" xmlns="http://www.w3.org/2000/svg" xmlns:xlink="http://www.w3.org/1999/xlink"><g id="tight-bounds" transform="matrix(1,0,0,1,-0.06049999999996203,-0.0926396683555879)"><svg viewBox="0 0 356.12052 108.18527933671119" height="108.18527933671119" width="356.12052"><g><svg viewBox="0 0 356.12052 108.18527933671119" height="108.18527933671119" width="356.12052"><g><svg viewBox="0 0 356.12052 108.18527933671119" height="108.18527933671119" width="356.12052"><g><path d="M0 108.185v-108.185h356.121v108.185z" fill="#000000" stroke="transparent" stroke-width="0" rx="0%" data-fill-palette-color="tertiary"></path><path d="M3.283 104.902v-101.619h349.554v101.619z" fill="#fce44d" stroke="transparent" stroke-width="0" rx="0%" data-fill-palette-color="quaternary"></path><path d="M9.85 98.335v-88.485h336.421v88.485z" fill="#000000" stroke="transparent" stroke-width="0" data-fill-palette-color="tertiary"></path></g><g transform="matrix(1,0,0,1,19.69974,19.69974)"><svg viewBox="0 0 316.72104 68.7857993367112" height="68.7857993367112" width="316.72104"><g><svg viewBox="0 0 316.72104 68.7857993367112" height="68.7857993367112" width="316.72104"><g transform="matrix(1,0,0,1,0,0)"><svg width="316.72104" viewBox="0.550000011920929 -29.450000762939453 217.0800018310547 47.150001525878906" height="68.7857993367112" data-palette-color="#fce44d"><path d="M34.85 1.25L34.85 1.25Q33.3 1.25 32.6-0.13 31.9-1.5 31.9-3.63 31.9-5.75 32.8-9.45L32.8-9.45Q31.05-9.6 26.85-10.15L26.85-10.15Q19.9-1.55 15.3 1.8L15.3 1.8Q11.35 4.75 7.1 4.75L7.1 4.75Q4.4 4.75 2.48 3.4 0.55 2.05 0.55-0.6L0.55-0.6Q0.55-1.1 0.8-1.53 1.05-1.95 1.3-1.75 1.55-1.55 1.55-0.6L1.55-0.6Q1.55 1.1 2.88 1.95 4.2 2.8 6.1 2.8L6.1 2.8Q10.2 2.8 14.18 0.13 18.15-2.55 25-10.35L25-10.35Q17.65-11.25 15.3-11.25L15.3-11.25Q8.95-11.25 7.45-7.1L7.45-7.1Q7.25-6.55 7.25-6.08 7.25-5.6 7.45-5.23 7.65-4.85 7.53-4.63 7.4-4.4 7.1-4.42 6.8-4.45 6.6-4.75L6.6-4.75Q6.05-5.7 6.05-6.6L6.05-6.6Q6.05-9.7 7.18-11.18 8.3-12.65 9.8-13.05L9.8-13.05Q11.6-13.55 14-13.55 16.4-13.55 26.1-11.65L26.1-11.65Q28.8-14.75 34.3-21.63 39.8-28.5 39.8-28.6L39.8-28.6 39.85-28.6Q39.9-28.65 40.1-28.75L40.1-28.75Q41.3-29.45 42.7-29.45L42.7-29.45Q43.2-29.45 43.2-28.95L43.2-28.95Q43.2-28.9 43.15-28.83 43.1-28.75 43.05-28.63 43-28.5 42.95-28.4L42.95-28.4Q38.15-20.45 35.5-10.5L35.5-10.5 35.35-10.15 36.6-10.1Q37-10.05 38.02-10.05 39.05-10.05 40.2-10.53 41.35-11 41.68-11.55 42-12.1 42.25-11.8 42.5-11.5 42.3-11.15L42.3-11.15Q41.75-10.15 40.35-9.7L40.35-9.7Q39.15-9.2 37.98-9.2 36.8-9.2 36.45-9.2L36.45-9.2 35.1-9.25Q34.15-4.9 34.15-2.33 34.15 0.25 35.55 0.25L35.55 0.25Q36.9 0.25 39.75-1.9 42.6-4.05 45.1-7.45L45.1-7.45Q45.25-7.65 45.5-7.55 45.75-7.45 45.75-7.3 45.75-7.15 45.68-6.93 45.6-6.7 44.9-5.8L44.9-5.8Q42.8-3 39.75-0.5L39.75-0.5Q37.55 1.25 34.85 1.25ZM37.6-23.9L37.6-23.9Q37.65-24 37.73-24.18 37.8-24.35 37.85-24.45L37.85-24.45Q31.6-15.9 27.8-11.25L27.8-11.25 33.05-10.4Q34.45-15.85 37.6-23.9ZM70.35-25.2L70.35-25.2Q70.35-28 67.4-28L67.4-28Q64.85-28 60.77-25.6 56.7-23.2 52.4-18.28 48.1-13.35 46.4-7.95L46.4-7.95Q45.7-5.8 45.7-3.98 45.7-2.15 46.75-0.8L46.75-0.8Q48.6 1.6 52.8 1.65L52.8 1.65Q53.1 1.65 53.35 1.65L53.35 1.65Q58 1.65 63.4-0.73 68.8-3.1 72.05-7.7L72.05-7.7Q72.3-8.05 72.57-7.85 72.85-7.65 72.85-7.5 72.85-7.35 72.75-7.25L72.75-7.25Q69.05-2.2 63.65 0.35 58.25 2.9 53.2 2.9L53.2 2.9Q47.9 2.9 45.2-0.1L45.2-0.1Q43.45-2.05 43.45-5.2L43.45-5.2Q43.45-10.5 47.45-16.6L47.45-16.6Q52.9-24.9 60.65-28.1L60.65-28.1Q63.65-29.3 66.4-29.3L66.4-29.3Q69.8-29.3 71.25-27.7L71.25-27.7Q72.2-26.6 72.2-25.15L72.2-25.15Q72.2-22.4 69.3-19.5 66.4-16.6 62.87-14.88 59.35-13.15 56.75-12.9L56.75-12.9Q55.7-12.8 55.75-13.45L55.75-13.45Q55.8-14.35 57-14.45L57-14.45Q61-14.8 64.35-16.88 67.7-18.95 69.5-22.4L69.5-22.4Q70.35-23.75 70.35-25.2ZM112.39-26.4L112.39-26.4Q112.39-25.3 111.49-23.85L111.49-23.85Q110.74-22.5 109.82-22 108.89-21.5 108.89-22.1L108.89-22.1Q108.89-22.15 109.44-22.7L109.44-22.7Q111.09-24.25 111.09-25.25L111.09-25.25Q111.09-27.4 106.84-27.4L106.84-27.4Q105.04-27.4 102.09-26.73 99.14-26.05 96.39-24.55L96.39-24.55Q93.19-22.8 93.19-21.5L93.19-21.5Q93.19-20.45 95.14-19.5L95.14-19.5Q96.19-19 99.32-17.82 102.44-16.65 104.37-15.78 106.29-14.9 108.02-13.3 109.74-11.7 109.74-9.75 109.74-7.8 107.44-5.5L107.44-5.5Q103.94-2.15 98.34 0.08 92.74 2.3 88.74 2.3L88.74 2.3Q80.84 2.3 80.84-2.15 80.84-6.6 85.69-9.7L85.69-9.7Q89.69-12.45 94.09-12.45L94.09-12.45Q95.14-12.45 95.04-12.1L95.04-12.1Q94.94-11.75 93.54-11.73 92.14-11.7 89.94-10.78 87.74-9.85 85.84-8.1L85.84-8.1Q83.34-5.85 83.34-3.6L83.34-3.6Q83.34-2.2 84.69-1.1 86.04 0 89.84 0 93.64 0 97.34-1.2L97.34-1.2Q105.34-3.85 107.34-7L107.34-7Q108.14-8.15 108.14-8.95L108.14-8.95Q108.14-11.25 105.34-12.55L105.34-12.55Q102.09-14.05 96.24-16L96.24-16Q93.99-16.75 92.42-17.98 90.84-19.2 90.84-20.93 90.84-22.65 92.72-24.33 94.59-26 97.24-27L97.24-27Q102.94-29.15 106.89-29.15L106.89-29.15Q112.39-29.15 112.39-26.4ZM124.29-11L124.29-11 124.54-12Q124.54-13 123.79-13L123.79-13Q121.74-13 118.19-9.8 114.64-6.6 113.69-3.35L113.69-3.35Q113.44-2.5 113.44-1.83 113.44-1.15 113.74-0.7L113.74-0.7Q114.34 0.2 115.59 0.2 116.84 0.2 118.29-0.15L118.29-0.15Q121.49-1.05 123.62-2.73 125.74-4.4 128.09-7.4L128.09-7.4Q128.29-7.65 128.56-7.55 128.84-7.45 128.84-7.28 128.84-7.1 128.69-6.75L128.69-6.75Q126.29-3.5 123.67-1.48 121.04 0.55 117.59 1.15L117.59 1.15Q116.59 1.3 115.74 1.3L115.74 1.3Q113.29 1.3 112.02 0.1 110.74-1.1 110.74-2.55 110.74-4 111.44-5.7L111.44-5.7Q112.69-8.55 116.79-11.55 120.89-14.55 123.29-14.55L123.29-14.55Q123.89-14.55 124.44-14.4L124.44-14.4Q125.84-13.9 125.84-12.8L125.84-12.8Q125.84-12.05 125.29-11.1 124.74-10.15 124.47-10.43 124.19-10.7 124.29-11ZM134.09 1.25L134.09 1.25Q131.54 1.25 131.54-1.83 131.54-4.9 135.94-9.4L135.94-9.4Q136.29-9.75 136.44-9.95L136.44-9.95 136.79-10.45Q137.49-11.4 137.44-11.65L137.44-11.65 137.29-12.1Q137.09-12.7 135.64-12.98 134.19-13.25 133.29-13.25L133.29-13.25Q128.79-6.9 128.09-6 127.39-5.1 127.14-5.25 126.89-5.4 126.89-5.6 126.89-5.8 127.19-6.2L127.19-6.2Q129.89-9.5 131.84-13.25L131.84-13.25Q131.24-13.35 130.94-13.68 130.64-14 130.89-14.78 131.14-15.55 132.41-16.85 133.69-18.15 134.64-18.6 135.59-19.05 135.84-19.15 136.09-19.25 136.39-19.25L136.39-19.25Q136.99-19.25 135.99-17.45L135.99-17.45 134.04-14.35Q136.29-14.2 137.89-14.2L137.89-14.2 139.64-14.25Q140.49-14.25 140.89-14.03 141.29-13.8 141.09-13.25L141.09-13.25Q140.74-12.3 139.34-10.7L139.34-10.7Q136.34-7.2 134.84-3.25L134.84-3.25Q134.49-2.3 134.49-1.6L134.49-1.6Q134.49-0.15 135.54-0.15L135.54-0.15Q135.89-0.15 136.86-0.7 137.84-1.25 140.14-3.33 142.44-5.4 143.84-7.4L143.84-7.4Q144.04-7.65 144.31-7.53 144.59-7.4 144.59-7.28 144.59-7.15 144.49-7L144.49-7Q143.74-5.65 141.79-3.55 139.84-1.45 137.99-0.15L137.99-0.15Q136.19 1.25 134.09 1.25ZM145.74 0.55L145.74 0.55Q144.94 0.55 144.01 0.08 143.09-0.4 142.44-1.28 141.79-2.15 141.79-3.15 141.79-4.15 142.24-5.05L142.24-5.05Q143.24-7.15 145.46-9.13 147.69-11.1 150.09-12.5 152.49-13.9 153.89-14.25 155.29-14.6 156.61-14.6 157.94-14.6 158.89-13.93 159.84-13.25 159.84-12.5L159.84-12.5Q159.84-12.25 159.79-12.2 159.74-12.15 159.54-12.25L159.54-12.25Q158.94-13.2 157.06-13.2 155.19-13.2 152.81-11.98 150.44-10.75 148.34-8.9L148.34-8.9Q146.59-7.25 145.26-5.18 143.94-3.1 143.94-2.15L143.94-2.15Q143.94-0.3 144.99-0.3 146.04-0.3 148.19-2L148.19-2Q151.74-5 153.04-6.4L153.04-6.4Q157.64-11.35 157.99-11.35L157.99-11.35Q158.59-11.35 159.44-11 160.29-10.65 159.99-10.15L159.99-10.15Q157.44-6.55 156.99-2.9L156.99-2.9Q156.94-2.45 156.94-1.75 156.94-1.05 157.34-0.6L157.34-0.6Q158.09 0.2 159.39-0.5 160.69-1.2 163.01-3.3 165.34-5.4 166.74-7.4L166.74-7.4Q166.94-7.65 167.19-7.53 167.44-7.4 167.44-7.3L167.44-7.3Q167.44-6.55 165.06-4.03 162.69-1.5 161.44-0.6L161.44-0.6Q159.09 1.15 157.09 1.15L157.09 1.15Q155.19 1.15 154.54-0.75L154.54-0.75Q154.39-1.35 154.39-2.1L154.39-2.1Q154.39-4.35 155.34-6.85L155.34-6.85Q155.14-6.75 153.49-4.85 151.84-2.95 149.66-1.2 147.49 0.55 145.74 0.55ZM181.73-10.4L181.73-10.4Q181.73-8.2 179.93-5.93 178.13-3.65 175.68-1.95L175.68-1.95Q173.43-0.5 171.11 0.3 168.78 1.1 167.61 1.1 166.43 1.1 165.68 0.85L165.68 0.85Q164.58 3.4 162.63 9.4L162.63 9.4Q162.43 10.05 162.41 11.03 162.38 12 161.81 13.68 161.23 15.35 160.68 16.35L160.68 16.35Q160.43 16.95 159.23 17.32 158.03 17.7 157.53 17.7 157.03 17.7 157.03 17.2L157.03 17.2Q157.03 17 157.18 16.65L157.18 16.65Q159.48 11.95 162.98 2.83 166.48-6.3 166.83-7.3 167.18-8.3 167.83-10.2L167.83-10.2Q168.93-13.4 169.03-15L169.03-15Q169.03-15.6 170.63-15.6 172.23-15.6 172.23-14.45L172.23-14.45Q172.23-13.6 171.26-12.08 170.28-10.55 168.38-6L168.38-6Q171.28-10.4 173.08-11.75L173.08-11.75Q175.48-13.7 177.73-13.7L177.73-13.7Q178.63-13.7 179.53-13.4L179.53-13.4Q181.48-12.7 181.68-11.15L181.68-11.15Q181.73-10.75 181.73-10.4ZM179.28-11.1L179.28-11.1Q179.28-12.85 177.93-12.85L177.93-12.85Q177.13-12.85 175.33-11.9 173.53-10.95 171.73-9.05 169.93-7.15 168.96-5.48 167.98-3.8 167.13-2.02 166.28-0.25 166.13 0.05L166.13 0.05Q169.18 0.05 172.83-2.6 176.48-5.25 178.28-8.35L178.28-8.35Q179.28-9.9 179.28-11.1ZM196.13-14.55L196.13-14.55Q198.83-14.55 198.83-11.95L198.83-11.95Q198.83-10.6 198.08-9.75L198.08-9.75Q196.83-7.9 194.03-6.53 191.23-5.15 189.28-5L189.28-5Q188.58-4.95 188.53-5.4L188.53-5.4Q188.48-5.6 188.66-5.65 188.83-5.7 188.93-5.7L188.93-5.7Q190.08-5.8 191.88-6.8L191.88-6.8Q195.23-8.6 196.78-10.5L196.78-10.5Q197.43-11.4 197.43-12.23 197.43-13.05 196.63-13.05L196.63-13.05Q195.98-13.05 194.88-12.5L194.88-12.5Q192.53-11.4 189.93-8.68 187.33-5.95 186.53-3.35L186.53-3.35Q186.28-2.55 186.28-1.78 186.28-1 186.93-0.3 187.58 0.4 188.93 0.4L188.93 0.4Q190.43 0.4 192.38-0.4L192.38-0.4Q198.03-2.7 201.08-7.35L201.08-7.35Q201.38-7.75 201.63-7.5L201.63-7.5Q201.83-7.4 201.83-7.25 201.83-7.1 201.68-6.9L201.68-6.9Q200.18-4.4 197.88-2.45L197.88-2.45Q193.43 1.35 189.23 1.35L189.23 1.35Q185.63 1.35 184.18-0.8L184.18-0.8Q183.63-1.65 183.63-2.85 183.63-4.05 184.28-5.7L184.28-5.7Q185.53-8.55 189.63-11.55 193.73-14.55 196.13-14.55ZM207.13 1.25L207.13 1.25Q204.58 1.25 204.58-1.83 204.58-4.9 208.98-9.4L208.98-9.4Q209.33-9.75 209.48-9.95L209.48-9.95 209.83-10.45Q210.53-11.4 210.48-11.65L210.48-11.65 210.33-12.1Q210.13-12.7 208.68-12.98 207.23-13.25 206.33-13.25L206.33-13.25Q201.83-6.9 201.13-6 200.43-5.1 200.18-5.25 199.93-5.4 199.93-5.6 199.93-5.8 200.23-6.2L200.23-6.2Q202.93-9.5 204.88-13.25L204.88-13.25Q204.28-13.35 203.98-13.68 203.68-14 203.93-14.78 204.18-15.55 205.45-16.85 206.73-18.15 207.68-18.6 208.63-19.05 208.88-19.15 209.13-19.25 209.43-19.25L209.43-19.25Q210.03-19.25 209.03-17.45L209.03-17.45 207.08-14.35Q209.33-14.2 210.93-14.2L210.93-14.2 212.68-14.25Q213.53-14.25 213.93-14.03 214.33-13.8 214.13-13.25L214.13-13.25Q213.78-12.3 212.38-10.7L212.38-10.7Q209.38-7.2 207.88-3.25L207.88-3.25Q207.53-2.3 207.53-1.6L207.53-1.6Q207.53-0.15 208.58-0.15L208.58-0.15Q208.93-0.15 209.9-0.7 210.88-1.25 213.18-3.33 215.48-5.4 216.88-7.4L216.88-7.4Q217.08-7.65 217.35-7.53 217.63-7.4 217.63-7.28 217.63-7.15 217.53-7L217.53-7Q216.78-5.65 214.83-3.55 212.88-1.45 211.03-0.15L211.03-0.15Q209.23 1.25 207.13 1.25Z" opacity="1" transform="matrix(1,0,0,1,0,0)" fill="#fce44d" class="undefined-text-0" data-fill-palette-color="quaternary" id="text-0"></path></svg></g></svg></g></svg></g></svg></g></svg></g><defs></defs></svg><rect width="356.12052" height="108.18527933671119" fill="none" stroke="none" visibility="hidden"></rect></g></svg></g></svg>